<svg xmlns="http://www.w3.org/2000/svg" width="1200" height="1200" viewBox="0 0 1200 1200">
<!-- Imagen PROVISIONAL generada por scripts/generar-provisionales.mjs. Reemplazar por una foto real. -->
<defs>
<filter id="n1" x="0" y="0" width="100%" height="100%" color-interpolation-filters="sRGB">
<feTurbulence type="fractalNoise" baseFrequency="0.09 0.0035" numOctaves="3" seed="21" stitchTiles="noStitch"/>
<feColorMatrix type="matrix" values="0 0 0 0 0.333  0 0 0 0 0.267  0 0 0 0 0.196  1.4 0 0 0 -0.45"/>
<feComponentTransfer><feFuncA type="linear" slope="0.35200000000000004" intercept="0"/></feComponentTransfer></filter>
<filter id="n2" x="0" y="0" width="100%" height="100%" color-interpolation-filters="sRGB">
<feTurbulence type="fractalNoise" baseFrequency="0.6 0.02" numOctaves="1" seed="23" stitchTiles="noStitch"/>
<feColorMatrix type="matrix" values="0 0 0 0 0.447  0 0 0 0 0.353  0 0 0 0 0.263  1.4 0 0 0 -0.45"/>
<feComponentTransfer><feFuncA type="linear" slope="0.15400000000000003" intercept="0"/></feComponentTransfer></filter>
<linearGradient id="lg3" x1="0" y1="0" x2="1" y2="1"><stop offset="0" stop-color="#caa98a" stop-opacity="1"/><stop offset="0.5" stop-color="#BE9670" stop-opacity="1"/><stop offset="1" stop-color="#a78463" stop-opacity="1"/></linearGradient>
<radialGradient id="rg4" cx="0.38" cy="0.35" r="0.72"><stop offset="0" stop-color="#786b5e" stop-opacity="1"/><stop offset="0.7" stop-color="#4B3A28" stop-opacity="1"/><stop offset="1" stop-color="#31261a" stop-opacity="1"/></radialGradient>
<linearGradient id="lg5" x1="0" y1="0" x2="1" y2="1"><stop offset="0" stop-color="#F1EEE8" stop-opacity="1"/><stop offset="0.45" stop-color="#B7B2A8" stop-opacity="1"/><stop offset="0.55" stop-color="#E4E0D8" stop-opacity="1"/><stop offset="1" stop-color="#8C877E" stop-opacity="1"/></linearGradient>
<radialGradient id="rg6" cx="0.35" cy="0.4" r="0.75"><stop offset="0" stop-color="#9DAE62" stop-opacity="1"/><stop offset="0.6" stop-color="#7D8F45" stop-opacity="1"/><stop offset="1" stop-color="#56662C" stop-opacity="1"/></radialGradient>
<filter id="n7" x="0" y="0" width="100%" height="100%" color-interpolation-filters="sRGB">
<feTurbulence type="fractalNoise" baseFrequency="0.35 0.35" numOctaves="2" seed="31" stitchTiles="noStitch"/>
<feColorMatrix type="matrix" values="0 0 0 0 0.184  0 0 0 0 0.227  0 0 0 0 0.078  1.4 0 0 0 -0.45"/>
<feComponentTransfer><feFuncA type="linear" slope="0.77" intercept="0"/></feComponentTransfer></filter>
<clipPath id="cm8"><circle cx="380" cy="390" r="98"/></clipPath>
<linearGradient id="lg9" x1="0" y1="0" x2="0" y2="1"><stop offset="0" stop-color="#EDEAE3" stop-opacity="1"/><stop offset="0.5" stop-color="#A9A49A" stop-opacity="1"/><stop offset="1" stop-color="#E6E2DA" stop-opacity="1"/></linearGradient>
<filter id="s10" x="-40%" y="-40%" width="190%" height="190%" color-interpolation-filters="sRGB">
<feGaussianBlur in="SourceAlpha" stdDeviation="18"/><feOffset dx="11" dy="16" result="o1"/>
<feFlood flood-color="#3E3024" flood-opacity="0.26"/><feComposite in2="o1" operator="in" result="s1"/>
<feGaussianBlur in="SourceAlpha" stdDeviation="2.8000000000000003"/><feOffset dx="2.4" dy="3.5999999999999996" result="o2"/>
<feFlood flood-color="#3E3024" flood-opacity="0.34"/><feComposite in2="o2" operator="in" result="s2"/>
<feMerge><feMergeNode in="s1"/><feMergeNode in="s2"/><feMergeNode in="SourceGraphic"/></feMerge></filter>
<filter id="b11" x="-60%" y="-60%" width="220%" height="220%" color-interpolation-filters="sRGB"><feGaussianBlur stdDeviation="11.200000000000001"/></filter>
<filter id="s12" x="-40%" y="-40%" width="190%" height="190%" color-interpolation-filters="sRGB">
<feGaussianBlur in="SourceAlpha" stdDeviation="12.6"/><feOffset dx="7.700000000000001" dy="11.200000000000001" result="o1"/>
<feFlood flood-color="#3E3024" flood-opacity="0.26"/><feComposite in2="o1" operator="in" result="s1"/>
<feGaussianBlur in="SourceAlpha" stdDeviation="1.9600000000000002"/><feOffset dx="1.68" dy="2.52" result="o2"/>
<feFlood flood-color="#3E3024" flood-opacity="0.34"/><feComposite in2="o2" operator="in" result="s2"/>
<feMerge><feMergeNode in="s1"/><feMergeNode in="s2"/><feMergeNode in="SourceGraphic"/></feMerge></filter>
<linearGradient id="lg13" x1="0" y1="0" x2="0" y2="1"><stop offset="0" stop-color="#6c807b" stop-opacity="1"/><stop offset="0.35" stop-color="#2D4A42" stop-opacity="1"/><stop offset="0.7" stop-color="#243b35" stop-opacity="1"/><stop offset="1" stop-color="#1b2c28" stop-opacity="1"/></linearGradient>
<linearGradient id="lg14" x1="0" y1="0" x2="0" y2="1"><stop offset="0" stop-color="#6f6a61" stop-opacity="1"/><stop offset="0.4" stop-color="#3f3b35" stop-opacity="1"/><stop offset="1" stop-color="#26231f" stop-opacity="1"/></linearGradient>
<linearGradient id="lg15" x1="0" y1="0" x2="0" y2="1"><stop offset="0" stop-color="#F2EFE9" stop-opacity="1"/><stop offset="0.4" stop-color="#B9B4AB" stop-opacity="1"/><stop offset="1" stop-color="#7F7A71" stop-opacity="1"/></linearGradient>
<filter id="s16" x="-40%" y="-40%" width="190%" height="190%" color-interpolation-filters="sRGB">
<feGaussianBlur in="SourceAlpha" stdDeviation="19.8"/><feOffset dx="12.100000000000001" dy="17.6" result="o1"/>
<feFlood flood-color="#3E3024" flood-opacity="0.26"/><feComposite in2="o1" operator="in" result="s1"/>
<feGaussianBlur in="SourceAlpha" stdDeviation="3.08"/><feOffset dx="2.6399999999999997" dy="3.96" result="o2"/>
<feFlood flood-color="#3E3024" flood-opacity="0.34"/><feComposite in2="o2" operator="in" result="s2"/>
<feMerge><feMergeNode in="s1"/><feMergeNode in="s2"/><feMergeNode in="SourceGraphic"/></feMerge></filter>
<radialGradient id="rg17" cx="0.4" cy="0.35" r="0.5"><stop offset="0" stop-color="#F2D48A" stop-opacity="1"/><stop offset="0.7" stop-color="#D2A646" stop-opacity="1"/><stop offset="1" stop-color="#9C7424" stop-opacity="1"/></radialGradient>
<filter id="s18" x="-40%" y="-40%" width="190%" height="190%" color-interpolation-filters="sRGB">
<feGaussianBlur in="SourceAlpha" stdDeviation="2.7"/><feOffset dx="1.6500000000000001" dy="2.4000000000000004" result="o1"/>
<feFlood flood-color="#3E3024" flood-opacity="0.26"/><feComposite in2="o1" operator="in" result="s1"/>
<feGaussianBlur in="SourceAlpha" stdDeviation="1"/><feOffset dx="0.36" dy="0.54" result="o2"/>
<feFlood flood-color="#3E3024" flood-opacity="0.34"/><feComposite in2="o2" operator="in" result="s2"/>
<feMerge><feMergeNode in="s1"/><feMergeNode in="s2"/><feMergeNode in="SourceGraphic"/></feMerge></filter>
<radialGradient id="rg19" cx="0.4" cy="0.35" r="0.5"><stop offset="0" stop-color="#F2D48A" stop-opacity="1"/><stop offset="0.7" stop-color="#D2A646" stop-opacity="1"/><stop offset="1" stop-color="#9C7424" stop-opacity="1"/></radialGradient>
<pattern id="pt20" width="12" height="12" patternUnits="userSpaceOnUse" patternTransform="rotate(45)"><rect width="12" height="12" fill="#2D4A42"/><path d="M0 6h12M6 0v12" stroke="#C9B98E" stroke-width="1" opacity="0.5"/></pattern>
<radialGradient id="rg21" cx="0.42" cy="0.38" r="0.72"><stop offset="0" stop-color="#fdfbf7" stop-opacity="1"/><stop offset="0.72" stop-color="#FBF8F1" stop-opacity="1"/><stop offset="1" stop-color="#e9e7e0" stop-opacity="1"/></radialGradient>
<radialGradient id="rg22" cx="0.58" cy="0.62" r="0.62"><stop offset="0" stop-color="#FBF8F1" stop-opacity="1"/><stop offset="0.8" stop-color="#f2efe9" stop-opacity="1"/><stop offset="1" stop-color="#e2dfd9" stop-opacity="1"/></radialGradient>
<filter id="s23" x="-40%" y="-40%" width="190%" height="190%" color-interpolation-filters="sRGB">
<feGaussianBlur in="SourceAlpha" stdDeviation="7.2"/><feOffset dx="4.4" dy="6.4" result="o1"/>
<feFlood flood-color="#3E3024" flood-opacity="0.26"/><feComposite in2="o1" operator="in" result="s1"/>
<feGaussianBlur in="SourceAlpha" stdDeviation="1.12"/><feOffset dx="0.96" dy="1.44" result="o2"/>
<feFlood flood-color="#3E3024" flood-opacity="0.34"/><feComposite in2="o2" operator="in" result="s2"/>
<feMerge><feMergeNode in="s1"/><feMergeNode in="s2"/><feMergeNode in="SourceGraphic"/></feMerge></filter>
<radialGradient id="rg24" cx="0.4" cy="0.35" r="0.5"><stop offset="0" stop-color="#e8cb9f" stop-opacity="1"/><stop offset="0.7" stop-color="#E0B97F" stop-opacity="1"/><stop offset="1" stop-color="#b39466" stop-opacity="1"/></radialGradient>
<filter id="s25" x="-40%" y="-40%" width="190%" height="190%" color-interpolation-filters="sRGB">
<feGaussianBlur in="SourceAlpha" stdDeviation="4.5"/><feOffset dx="2.75" dy="4" result="o1"/>
<feFlood flood-color="#3E3024" flood-opacity="0.26"/><feComposite in2="o1" operator="in" result="s1"/>
<feGaussianBlur in="SourceAlpha" stdDeviation="1"/><feOffset dx="0.6" dy="0.8999999999999999" result="o2"/>
<feFlood flood-color="#3E3024" flood-opacity="0.34"/><feComposite in2="o2" operator="in" result="s2"/>
<feMerge><feMergeNode in="s1"/><feMergeNode in="s2"/><feMergeNode in="SourceGraphic"/></feMerge></filter>
<radialGradient id="rg26" cx="0.4" cy="0.35" r="0.5"><stop offset="0" stop-color="#e8cb9f" stop-opacity="1"/><stop offset="0.7" stop-color="#E0B97F" stop-opacity="1"/><stop offset="1" stop-color="#b39466" stop-opacity="1"/></radialGradient>
<radialGradient id="rg27" cx="0.4" cy="0.35" r="0.5"><stop offset="0" stop-color="#e8cb9f" stop-opacity="1"/><stop offset="0.7" stop-color="#E0B97F" stop-opacity="1"/><stop offset="1" stop-color="#b39466" stop-opacity="1"/></radialGradient>
<filter id="b29" x="-60%" y="-60%" width="220%" height="220%" color-interpolation-filters="sRGB"><feGaussianBlur stdDeviation="18"/></filter>
<mask id="lm28" maskUnits="userSpaceOnUse" x="0" y="0" width="1200" height="1200"><g fill="#fff" filter="url(#b29)" transform="translate(250 -100) rotate(0) matrix(1 0.1 -0.6 1 0 0)"><rect x="0" y="0" width="360" height="520"/><rect x="390" y="0" width="360" height="520"/></g></mask>
<filter id="b30" x="-60%" y="-60%" width="220%" height="220%" color-interpolation-filters="sRGB"><feGaussianBlur stdDeviation="4"/></filter>
<filter id="grain31" x="0" y="0" width="100%" height="100%" color-interpolation-filters="sRGB">
<feTurbulence type="fractalNoise" baseFrequency="0.92" numOctaves="2" seed="7" stitchTiles="noStitch"/>
<feColorMatrix type="saturate" values="0"/>
<feComponentTransfer><feFuncA type="table" tableValues="0 0.09"/></feComponentTransfer></filter>
<radialGradient id="rg32" cx="0.5" cy="0.48" r="0.78"><stop offset="0" stop-color="#000" stop-opacity="0"/><stop offset="0.62" stop-color="#000" stop-opacity="0"/><stop offset="1" stop-color="#2b1d10" stop-opacity="0.18"/></radialGradient>
</defs>
<rect x="0" y="0" width="1200" height="1200" fill="url(#lg3)"/>
<rect x="0" y="0" width="1200" height="1200" filter="url(#n1)"/>
<rect x="0" y="0" width="1200" height="1200" filter="url(#n2)"/><rect x="299" y="0" width="2" height="1200" fill="#85694e" opacity="0.35"/><rect x="599" y="0" width="2" height="1200" fill="#85694e" opacity="0.35"/><rect x="899" y="0" width="2" height="1200" fill="#85694e" opacity="0.35"/>
<circle cx="380" cy="390" r="140" fill="url(#rg4)" filter="url(#s10)"/><circle cx="380" cy="390" r="130.2" fill="none" stroke="#8a7f73" stroke-width="3.5" stroke-dasharray="8.4 7" opacity="0.7"/>
<circle cx="380" cy="390" r="112" fill="url(#lg5)"/>
<circle cx="380" cy="390" r="98" fill="url(#rg6)"/>
<rect x="240" y="250" width="280" height="280" clip-path="url(#cm8)" filter="url(#n7)"/>
<ellipse cx="405.2" cy="406.8" rx="47.6" ry="36.4" fill="#A8BA6B" opacity="0.55" filter="url(#b11)"/>
<g transform="translate(391.5 382) rotate(-35)" filter="url(#s12)">
<rect x="0" y="-7.7" width="266" height="15.4" rx="7.7" fill="url(#lg9)"/>
<rect x="138.3" y="-11.9" width="16.8" height="23.8" rx="5.6" fill="url(#lg9)"/>
<rect x="232.4" y="-10.5" width="36.4" height="21" rx="9.8" fill="url(#lg9)"/>
</g>
<g transform="translate(700 160) rotate(118)" filter="url(#s16)">
<rect x="0" y="-72.8" width="384.8" height="145.6" rx="40.8" fill="url(#lg13)"/>
<rect x="364" y="-68.4" width="31.2" height="136.9" fill="url(#lg15)"/>
<rect x="390" y="-61.2" width="130" height="122.3" rx="32" fill="url(#lg14)"/>
<rect x="41.6" y="-55.3" width="291.2" height="17.5" rx="8.7" fill="#fff" opacity="0.18"/>
</g>
<g transform="translate(560 800) rotate(-18)"><rect x="-85" y="-131.7" width="170" height="263.5" rx="13.6" fill="#FBF8F1" stroke="#E0D6C4" stroke-width="1" filter="url(#s18)"/><circle cx="0" cy="-73.8" r="22.1" fill="url(#rg17)" stroke="#8E6A1F" stroke-width="1.2"/><circle cx="0" cy="-73.8" r="10.2" fill="none" stroke="#8E6A1F" stroke-width="1"/><circle cx="0" cy="0" r="22.1" fill="url(#rg17)" stroke="#8E6A1F" stroke-width="1.2"/><circle cx="0" cy="0" r="10.2" fill="none" stroke="#8E6A1F" stroke-width="1"/><circle cx="0" cy="73.8" r="22.1" fill="url(#rg17)" stroke="#8E6A1F" stroke-width="1.2"/><circle cx="0" cy="73.8" r="10.2" fill="none" stroke="#8E6A1F" stroke-width="1"/><rect x="-71.4" y="-118.6" width="142.8" height="237.2" rx="4" fill="none" stroke="#C9A15A" stroke-width="1.2" opacity="0.7"/><text x="-57.8" y="-87" font-family="Georgia, serif" font-size="27.2" fill="#8E6A1F">3</text></g>
<g transform="translate(700 780) rotate(4)"><rect x="-85" y="-131.7" width="170" height="263.5" rx="13.6" fill="#FBF8F1" stroke="#E0D6C4" stroke-width="1" filter="url(#s18)"/><circle cx="-34" cy="-68.5" r="22.1" fill="url(#rg19)" stroke="#8E6A1F" stroke-width="1.2"/><circle cx="-34" cy="-68.5" r="10.2" fill="none" stroke="#8E6A1F" stroke-width="1"/><circle cx="34" cy="-68.5" r="22.1" fill="url(#rg19)" stroke="#8E6A1F" stroke-width="1.2"/><circle cx="34" cy="-68.5" r="10.2" fill="none" stroke="#8E6A1F" stroke-width="1"/><circle cx="0" cy="0" r="22.1" fill="url(#rg19)" stroke="#8E6A1F" stroke-width="1.2"/><circle cx="0" cy="0" r="10.2" fill="none" stroke="#8E6A1F" stroke-width="1"/><circle cx="-34" cy="68.5" r="22.1" fill="url(#rg19)" stroke="#8E6A1F" stroke-width="1.2"/><circle cx="-34" cy="68.5" r="10.2" fill="none" stroke="#8E6A1F" stroke-width="1"/><circle cx="34" cy="68.5" r="22.1" fill="url(#rg19)" stroke="#8E6A1F" stroke-width="1.2"/><circle cx="34" cy="68.5" r="10.2" fill="none" stroke="#8E6A1F" stroke-width="1"/><rect x="-71.4" y="-118.6" width="142.8" height="237.2" rx="4" fill="none" stroke="#C9A15A" stroke-width="1.2" opacity="0.7"/><text x="-57.8" y="-87" font-family="Georgia, serif" font-size="27.2" fill="#8E6A1F">5</text></g>
<g transform="translate(840 820) rotate(22)"><rect x="-85" y="-131.7" width="170" height="263.5" rx="13.6" fill="#FBF8F1" stroke="#E0D6C4" stroke-width="1" filter="url(#s18)"/><rect x="-68" y="-113.3" width="136" height="226.6" rx="5" fill="url(#pt20)"/></g>
<circle cx="250" cy="880" r="170" fill="url(#rg21)" filter="url(#s23)"/>
<circle cx="250" cy="880" r="119" fill="url(#rg22)"/>
<path d="M97,897 A153,153 0 0 1 233,727" fill="none" stroke="#fff" stroke-width="6" stroke-linecap="round" opacity="0.55"/>
<circle cx="210" cy="850" r="40" fill="url(#rg24)" filter="url(#s25)"/><circle cx="211.4" cy="850.9" r="2.4" fill="#9d8259" opacity="0.6"/><circle cx="205.1" cy="844.6" r="2.4" fill="#9d8259" opacity="0.6"/><circle cx="207.7" cy="854.6" r="2.4" fill="#9d8259" opacity="0.6"/><circle cx="187.2" cy="848.3" r="2.4" fill="#9d8259" opacity="0.6"/><circle cx="210.1" cy="849.8" r="2.4" fill="#9d8259" opacity="0.6"/><circle cx="208.7" cy="845.2" r="2.4" fill="#9d8259" opacity="0.6"/>
<circle cx="290" cy="860" r="40" fill="url(#rg26)" filter="url(#s25)"/><circle cx="310.3" cy="872.2" r="2.4" fill="#9d8259" opacity="0.6"/><circle cx="296" cy="850.4" r="2.4" fill="#9d8259" opacity="0.6"/><circle cx="289.9" cy="858.7" r="2.4" fill="#9d8259" opacity="0.6"/><circle cx="275" cy="864.6" r="2.4" fill="#9d8259" opacity="0.6"/><circle cx="295.1" cy="859.5" r="2.4" fill="#9d8259" opacity="0.6"/><circle cx="293.1" cy="855.4" r="2.4" fill="#9d8259" opacity="0.6"/>
<circle cx="240" cy="930" r="40" fill="url(#rg27)" filter="url(#s25)"/><circle cx="246.8" cy="947.5" r="2.4" fill="#9d8259" opacity="0.6"/><circle cx="249.5" cy="944.3" r="2.4" fill="#9d8259" opacity="0.6"/><circle cx="231.6" cy="938.8" r="2.4" fill="#9d8259" opacity="0.6"/><circle cx="257.3" cy="923.9" r="2.4" fill="#9d8259" opacity="0.6"/><circle cx="257.3" cy="916.6" r="2.4" fill="#9d8259" opacity="0.6"/><circle cx="228.1" cy="914.6" r="2.4" fill="#9d8259" opacity="0.6"/>
<rect width="1200" height="1200" fill="#FFE1AE" opacity="0.3" mask="url(#lm28)"/><g mask="url(#lm28)" opacity="0.28"><g fill="#3E3024" filter="url(#b30)"><path d="M0,0 C27.6,-23.8 61.2,-22.6 98.7,0 C61.2,22.6 27.6,23.8 0,0Z" transform="translate(1143.4 335) rotate(196)"/><path d="M0,0 C27.5,-19.2 60.8,-18.3 98.1,0 C60.8,18.3 27.5,19.2 0,0Z" transform="translate(1096.7 376.2) rotate(179.7)"/><path d="M0,0 C25.5,-18.3 56.5,-17.4 91.2,0 C56.5,17.4 25.5,18.3 0,0Z" transform="translate(1048.8 415.7) rotate(183.7)"/><path d="M0,0 C25.3,-22.8 55.9,-21.7 90.2,0 C55.9,21.7 25.3,22.8 0,0Z" transform="translate(999.6 453.8) rotate(193.8)"/><path d="M0,0 C21.8,-20.1 48.3,-19.1 77.9,0 C48.3,19.1 21.8,20.1 0,0Z" transform="translate(949.2 490.2) rotate(176.3)"/><path d="M0,0 C19.3,-17.7 42.7,-16.8 68.8,0 C42.7,16.8 19.3,17.7 0,0Z" transform="translate(897.6 524.9) rotate(199.5)"/><path d="M0,0 C16,-16.4 35.3,-15.6 57,0 C35.3,15.6 16,16.4 0,0Z" transform="translate(845 558) rotate(181.3)"/><path d="M0,0 C15.7,-18.5 34.7,-17.6 56,0 C34.7,17.6 15.7,18.5 0,0Z" transform="translate(791.3 589.4) rotate(200.2)"/><path d="M0,0 C18.7,-15.1 41.5,-14.4 66.9,0 C41.5,14.4 18.7,15.1 0,0Z" transform="translate(736.6 619) rotate(210.4)"/><path d="M0,0 C18,-17 39.8,-16.2 64.2,0 C39.8,16.2 18,17 0,0Z" transform="translate(681 646.8) rotate(190.3)"/><path d="M0,0 C13.2,-18.2 29.3,-17.3 47.3,0 C29.3,17.3 13.2,18.2 0,0Z" transform="translate(624.5 672.8) rotate(196)"/><path d="M0,0 C16.5,-16.7 36.6,-15.8 59.1,0 C36.6,15.8 16.5,16.7 0,0Z" transform="translate(567.2 697) rotate(210.1)"/><path d="M0,0 C17.6,-15.4 39.1,-14.6 63,0 C39.1,14.6 17.6,15.4 0,0Z" transform="translate(567.2 697) rotate(157.6)"/><path d="M0,0 C22.6,-20.1 49.9,-19.1 80.6,0 C49.9,19.1 22.6,20.1 0,0Z" transform="translate(1136.6 348.8) rotate(182.9)"/><path d="M0,0 C28.2,-17.7 62.5,-16.8 100.8,0 C62.5,16.8 28.2,17.7 0,0Z" transform="translate(1087.5 392.3) rotate(185.6)"/><path d="M0,0 C23,-17.9 50.8,-17 82,0 C50.8,17 23,17.9 0,0Z" transform="translate(1039.4 436.9) rotate(188.5)"/><path d="M0,0 C22.7,-22 50.4,-20.9 81.2,0 C50.4,20.9 22.7,22 0,0Z" transform="translate(992.3 482.6) rotate(194.7)"/><path d="M0,0 C23.4,-22.6 51.9,-21.5 83.6,0 C51.9,21.5 23.4,22.6 0,0Z" transform="translate(946.4 529.4) rotate(193.7)"/><path d="M0,0 C17.1,-21.4 37.8,-20.4 61,0 C37.8,20.4 17.1,21.4 0,0Z" transform="translate(901.5 577.2) rotate(169.8)"/><path d="M0,0 C20,-20.1 44.2,-19.1 71.3,0 C44.2,19.1 20,20.1 0,0Z" transform="translate(857.7 626) rotate(180.9)"/><path d="M0,0 C19.1,-18.6 42.2,-17.7 68.1,0 C42.2,17.7 19.1,18.6 0,0Z" transform="translate(815 675.9) rotate(182)"/><path d="M0,0 C19,-15.3 42.1,-14.5 67.9,0 C42.1,14.5 19,15.3 0,0Z" transform="translate(773.5 726.6) rotate(166.8)"/><path d="M0,0 C17.9,-13.9 39.6,-13.2 63.9,0 C39.6,13.2 17.9,13.9 0,0Z" transform="translate(733.2 778.4) rotate(187)"/><path d="M0,0 C18,-13.8 40,-13.2 64.4,0 C40,13.2 18,13.8 0,0Z" transform="translate(694.1 831) rotate(162)"/><path d="M0,0 C12.4,-14 27.5,-13.3 44.4,0 C27.5,13.3 12.4,14 0,0Z" transform="translate(656.2 884.5) rotate(169.1)"/><path d="M0,0 C17.6,-15.4 39.1,-14.6 63,0 C39.1,14.6 17.6,15.4 0,0Z" transform="translate(656.2 884.5) rotate(125)"/><path d="M0,0 C21.7,-20.1 48.1,-19.1 77.6,0 C48.1,19.1 21.7,20.1 0,0Z" transform="translate(1162.9 322.3) rotate(215.8)"/><path d="M0,0 C20.4,-21.8 45.1,-20.7 72.7,0 C45.1,20.7 20.4,21.8 0,0Z" transform="translate(1112.4 342.3) rotate(205.4)"/><path d="M0,0 C23.9,-20.8 52.9,-19.7 85.3,0 C52.9,19.7 23.9,20.8 0,0Z" transform="translate(1061.7 361.9) rotate(204.6)"/><path d="M0,0 C19,-21.6 42.2,-20.5 68,0 C42.2,20.5 19,21.6 0,0Z" transform="translate(1010.9 381.1) rotate(191.4)"/><path d="M0,0 C21.2,-19.8 46.9,-18.8 75.6,0 C46.9,18.8 21.2,19.8 0,0Z" transform="translate(960 400) rotate(203.1)"/><path d="M0,0 C22.6,-22.4 50,-21.3 80.7,0 C50,21.3 22.6,22.4 0,0Z" transform="translate(908.9 418.5) rotate(195)"/><path d="M0,0 C21.4,-18.9 47.3,-18 76.3,0 C47.3,18 21.4,18.9 0,0Z" transform="translate(857.8 436.7) rotate(199.1)"/><path d="M0,0 C16.8,-17.7 37.2,-16.8 60,0 C37.2,16.8 16.8,17.7 0,0Z" transform="translate(806.5 454.5) rotate(202.8)"/><path d="M0,0 C17.7,-15.1 39.3,-14.4 63.3,0 C39.3,14.4 17.7,15.1 0,0Z" transform="translate(755 471.9) rotate(206.1)"/><path d="M0,0 C14.5,-18.9 32.1,-17.9 51.8,0 C32.1,17.9 14.5,18.9 0,0Z" transform="translate(703.5 489) rotate(196.8)"/><path d="M0,0 C16.9,-17.9 37.5,-17 60.4,0 C37.5,17 16.9,17.9 0,0Z" transform="translate(651.8 505.8) rotate(202.1)"/><path d="M0,0 C12.8,-16.2 28.3,-15.4 45.6,0 C28.3,15.4 12.8,16.2 0,0Z" transform="translate(600 522.2) rotate(216.1)"/><path d="M0,0 C17.6,-15.4 39.1,-14.6 63,0 C39.1,14.6 17.6,15.4 0,0Z" transform="translate(600 522.2) rotate(162.5)"/><path d="M0,0 C27.4,-25.2 60.7,-24 98,0 C60.7,24 27.4,25.2 0,0Z" transform="translate(1157.1 310.9) rotate(226.5)"/><path d="M0,0 C24.2,-22.8 53.6,-21.7 86.5,0 C53.6,21.7 24.2,22.8 0,0Z" transform="translate(1107.9 301.4) rotate(231.6)"/><path d="M0,0 C26.3,-19.4 58.2,-18.4 93.9,0 C58.2,18.4 26.3,19.4 0,0Z" transform="translate(1058.9 290.9) rotate(242.9)"/><path d="M0,0 C18.9,-23.4 41.9,-22.2 67.6,0 C41.9,22.2 18.9,23.4 0,0Z" transform="translate(1010.1 279.6) rotate(225.1)"/><path d="M0,0 C24.6,-17.4 54.6,-16.6 88,0 C54.6,16.6 24.6,17.4 0,0Z" transform="translate(961.5 267.5) rotate(245.6)"/><path d="M0,0 C22.9,-17.5 50.7,-16.6 81.7,0 C50.7,16.6 22.9,17.5 0,0Z" transform="translate(913.2 254.4) rotate(231.6)"/><path d="M0,0 C17.2,-19.3 38.2,-18.3 61.5,0 C38.2,18.3 17.2,19.3 0,0Z" transform="translate(865 240.5) rotate(231.6)"/><path d="M0,0 C21.1,-16.4 46.7,-15.6 75.4,0 C46.7,15.6 21.1,16.4 0,0Z" transform="translate(817.2 225.7) rotate(229.5)"/><path d="M0,0 C16.8,-14.4 37.2,-13.6 60.1,0 C37.2,13.6 16.8,14.4 0,0Z" transform="translate(769.6 210) rotate(256.8)"/><path d="M0,0 C18.8,-17.5 41.6,-16.6 67.2,0 C41.6,16.6 18.8,17.5 0,0Z" transform="translate(722.3 193.5) rotate(237.7)"/><path d="M0,0 C15.3,-15.7 33.9,-14.9 54.7,0 C33.9,14.9 15.3,15.7 0,0Z" transform="translate(675.3 176.2) rotate(236.2)"/><path d="M0,0 C14.2,-17.3 31.5,-16.5 50.7,0 C31.5,16.5 14.2,17.3 0,0Z" transform="translate(628.6 158) rotate(242.4)"/><path d="M0,0 C17.6,-15.4 39.1,-14.6 63,0 C39.1,14.6 17.6,15.4 0,0Z" transform="translate(628.6 158) rotate(201.6)"/><path d="M0,0 C28.1,-20 62.2,-19 100.3,0 C62.2,19 28.1,20 0,0Z" transform="translate(1131 273.7) rotate(238.6)"/><path d="M0,0 C20.8,-24.7 46,-23.4 74.1,0 C46,23.4 20.8,24.7 0,0Z" transform="translate(1062.8 252.2) rotate(245.5)"/><path d="M0,0 C26.8,-18.5 59.3,-17.6 95.7,0 C59.3,17.6 26.8,18.5 0,0Z" transform="translate(994.6 230.9) rotate(237.3)"/><path d="M0,0 C18.2,-24.3 40.3,-23.1 65.1,0 C40.3,23.1 18.2,24.3 0,0Z" transform="translate(926.3 209.8) rotate(239.1)"/><path d="M0,0 C22.3,-20.9 49.5,-19.8 79.8,0 C49.5,19.8 22.3,20.9 0,0Z" transform="translate(857.9 189) rotate(239.2)"/><path d="M0,0 C18.2,-22.2 40.2,-21.1 64.8,0 C40.2,21.1 18.2,22.2 0,0Z" transform="translate(789.5 168.4) rotate(255.3)"/><path d="M0,0 C16.3,-17.8 36,-16.9 58.1,0 C36,16.9 16.3,17.8 0,0Z" transform="translate(721 148) rotate(239.7)"/><path d="M0,0 C15.5,-14.5 34.2,-13.8 55.2,0 C34.2,13.8 15.5,14.5 0,0Z" transform="translate(652.5 127.8) rotate(236.8)"/><path d="M0,0 C17.7,-19.3 39.1,-18.3 63.1,0 C39.1,18.3 17.7,19.3 0,0Z" transform="translate(583.8 107.9) rotate(233)"/><path d="M0,0 C14.7,-18.7 32.6,-17.8 52.5,0 C32.6,17.8 14.7,18.7 0,0Z" transform="translate(515.1 88.1) rotate(254.4)"/><path d="M0,0 C15.2,-15.9 33.6,-15.2 54.3,0 C33.6,15.2 15.2,15.9 0,0Z" transform="translate(446.4 68.7) rotate(254.5)"/><path d="M0,0 C16.3,-16.8 36,-16 58.1,0 C36,16 16.3,16.8 0,0Z" transform="translate(377.6 49.4) rotate(252.2)"/><path d="M0,0 C17.6,-15.4 39.1,-14.6 63,0 C39.1,14.6 17.6,15.4 0,0Z" transform="translate(377.6 49.4) rotate(195.6)"/></g><g fill="none" stroke="#3E3024" stroke-width="3" filter="url(#b30)"><path d="M1188.7,292.4 L1166.2,313.9 L1143.4,335 L1120.2,355.8 L1096.7,376.2 L1072.9,396.1 L1048.8,415.7 L1024.3,435 L999.6,453.8 L974.5,472.2 L949.2,490.2 L923.5,507.8 L897.6,524.9 L871.4,541.7 L845,558 L818.3,573.9 L791.3,589.4 L764.1,604.4 L736.6,619 L708.9,633.1 L681,646.8 L652.9,660.1 L624.5,672.8 L596,685.2 L567.2,697"/><path d="M1186.7,306.5 L1161.5,327.5 L1136.6,348.8 L1111.9,370.5 L1087.5,392.3 L1063.3,414.5 L1039.4,436.9 L1015.7,459.6 L992.3,482.6 L969.2,505.9 L946.4,529.4 L923.8,553.2 L901.5,577.2 L879.4,601.5 L857.7,626 L836.2,650.8 L815,675.9 L794.1,701.1 L773.5,726.6 L753.2,752.4 L733.2,778.4 L713.5,804.6 L694.1,831 L675,857.7 L656.2,884.5"/><path d="M1213.3,302 L1188.1,312.2 L1162.9,322.3 L1137.6,332.4 L1112.4,342.3 L1087.1,352.1 L1061.7,361.9 L1036.3,371.5 L1010.9,381.1 L985.5,390.6 L960,400 L934.5,409.3 L908.9,418.5 L883.4,427.6 L857.8,436.7 L832.1,445.6 L806.5,454.5 L780.8,463.3 L755,471.9 L729.3,480.5 L703.5,489 L677.7,497.5 L651.8,505.8 L625.9,514 L600,522.2"/><path d="M1206.5,319.5 L1181.8,315.3 L1157.1,310.9 L1132.5,306.2 L1107.9,301.4 L1083.4,296.3 L1058.9,290.9 L1034.5,285.4 L1010.1,279.6 L985.8,273.7 L961.5,267.5 L937.3,261 L913.2,254.4 L889.1,247.6 L865,240.5 L841.1,233.2 L817.2,225.7 L793.3,218 L769.6,210 L745.9,201.9 L722.3,193.5 L698.7,185 L675.3,176.2 L651.9,167.2 L628.6,158"/><path d="M1199,295.4 L1165,284.5 L1131,273.7 L1096.9,262.9 L1062.8,252.2 L1028.7,241.5 L994.6,230.9 L960.5,220.3 L926.3,209.8 L892.1,199.4 L857.9,189 L823.7,178.6 L789.5,168.4 L755.3,158.1 L721,148 L686.7,137.9 L652.5,127.8 L618.2,117.8 L583.8,107.9 L549.5,98 L515.1,88.1 L480.8,78.4 L446.4,68.7 L412,59 L377.6,49.4"/></g></g>
<rect width="1200" height="1200" fill="url(#rg32)"/>
<rect width="1200" height="1200" filter="url(#grain31)" style="mix-blend-mode:multiply"/>
</svg>
