<svg xmlns="http://www.w3.org/2000/svg" width="1600" height="1200" viewBox="0 0 1600 1200">
<!-- Imagen PROVISIONAL generada por scripts/generar-provisionales.mjs. Reemplazar por una foto real. -->
<defs>
<linearGradient id="lg1" x1="0" y1="0" x2="0" y2="1"><stop offset="0" stop-color="#DCE5D6" stop-opacity="1"/><stop offset="0.45" stop-color="#9FB392" stop-opacity="1"/><stop offset="1" stop-color="#5F7A55" stop-opacity="1"/></linearGradient>
<filter id="b2" x="-60%" y="-60%" width="220%" height="220%" color-interpolation-filters="sRGB"><feGaussianBlur stdDeviation="38"/></filter>
<filter id="b3" x="-60%" y="-60%" width="220%" height="220%" color-interpolation-filters="sRGB"><feGaussianBlur stdDeviation="10"/></filter>
<radialGradient id="rg4" cx="0.82" cy="0.12" r="0.6"><stop offset="0" stop-color="#FFF3D0" stop-opacity="0.6"/><stop offset="1" stop-color="#FFF3D0" stop-opacity="0"/></radialGradient>
<linearGradient id="lg5" x1="0" y1="0" x2="0" y2="1"><stop offset="0" stop-color="#7E9A5E" stop-opacity="1"/><stop offset="1" stop-color="#56713F" stop-opacity="1"/></linearGradient>
<filter id="b6" x="-60%" y="-60%" width="220%" height="220%" color-interpolation-filters="sRGB"><feGaussianBlur stdDeviation="4"/></filter>
<linearGradient id="lg7" x1="0" y1="0" x2="0" y2="1"><stop offset="0" stop-color="#D4B791" stop-opacity="1"/><stop offset="1" stop-color="#8E6A48" stop-opacity="1"/></linearGradient>
<filter id="b8" x="-60%" y="-60%" width="220%" height="220%" color-interpolation-filters="sRGB"><feGaussianBlur stdDeviation="1.6"/></filter>
<filter id="b9" x="-60%" y="-60%" width="220%" height="220%" color-interpolation-filters="sRGB"><feGaussianBlur stdDeviation="3"/></filter>
<filter id="grain10" x="0" y="0" width="100%" height="100%" color-interpolation-filters="sRGB">
<feTurbulence type="fractalNoise" baseFrequency="0.92" numOctaves="2" seed="7" stitchTiles="noStitch"/>
<feColorMatrix type="saturate" values="0"/>
<feComponentTransfer><feFuncA type="table" tableValues="0 0.08"/></feComponentTransfer></filter>
<radialGradient id="rg11" cx="0.5" cy="0.48" r="0.78"><stop offset="0" stop-color="#000" stop-opacity="0"/><stop offset="0.62" stop-color="#000" stop-opacity="0"/><stop offset="1" stop-color="#2b1d10" stop-opacity="0.14"/></radialGradient>
</defs>
<rect width="1600" height="1200" fill="url(#lg1)"/><circle cx="1645.1" cy="-23.4" r="148.7" fill="#A9BE92" opacity="0.4" filter="url(#b2)"/><circle cx="250.1" cy="918" r="136.7" fill="#A9BE92" opacity="0.6" filter="url(#b2)"/><circle cx="1301.4" cy="175" r="149.4" fill="#A9BE92" opacity="0.8" filter="url(#b2)"/><circle cx="1584.3" cy="179.4" r="132.1" fill="#C3D1AE" opacity="0.7" filter="url(#b2)"/><circle cx="756.6" cy="107.5" r="139.2" fill="#7F9A6C" opacity="0.5" filter="url(#b2)"/><circle cx="481.3" cy="622.4" r="116.9" fill="#4D6A47" opacity="0.6" filter="url(#b2)"/><circle cx="560.6" cy="313.5" r="122.9" fill="#C3D1AE" opacity="0.4" filter="url(#b2)"/><circle cx="1504" cy="79.4" r="86.6" fill="#C3D1AE" opacity="0.6" filter="url(#b2)"/><circle cx="487.9" cy="813.3" r="81.3" fill="#4D6A47" opacity="0.4" filter="url(#b2)"/><circle cx="-12.1" cy="522.5" r="178.9" fill="#4D6A47" opacity="0.8" filter="url(#b2)"/><circle cx="455.1" cy="261.6" r="166.9" fill="#7F9A6C" opacity="0.6" filter="url(#b2)"/><circle cx="1287.7" cy="701.5" r="119" fill="#A9BE92" opacity="0.5" filter="url(#b2)"/><circle cx="1625.8" cy="573.8" r="90.7" fill="#A9BE92" opacity="0.4" filter="url(#b2)"/><circle cx="1199.4" cy="434.4" r="100.6" fill="#7F9A6C" opacity="0.7" filter="url(#b2)"/><circle cx="1495" cy="414.4" r="119" fill="#4D6A47" opacity="0.4" filter="url(#b2)"/><circle cx="506" cy="809.4" r="103.2" fill="#5E7A52" opacity="0.5" filter="url(#b2)"/><circle cx="-35.8" cy="884.2" r="145.6" fill="#5E7A52" opacity="0.4" filter="url(#b2)"/><circle cx="405.2" cy="334.2" r="84.5" fill="#7F9A6C" opacity="0.5" filter="url(#b2)"/><circle cx="718.4" cy="932.1" r="156.1" fill="#7F9A6C" opacity="0.5" filter="url(#b2)"/><circle cx="385.9" cy="94.4" r="76.5" fill="#C3D1AE" opacity="0.5" filter="url(#b2)"/><circle cx="1354.1" cy="35.4" r="96.3" fill="#A9BE92" opacity="0.7" filter="url(#b2)"/><circle cx="868.9" cy="371.6" r="106" fill="#4D6A47" opacity="0.7" filter="url(#b2)"/><circle cx="1039.2" cy="416.8" r="86.1" fill="#A9BE92" opacity="0.5" filter="url(#b2)"/><circle cx="-15.7" cy="268.9" r="69.3" fill="#C3D1AE" opacity="0.4" filter="url(#b2)"/><circle cx="855.4" cy="414.5" r="61.4" fill="#5E7A52" opacity="0.5" filter="url(#b2)"/><circle cx="533.1" cy="618.9" r="69" fill="#5E7A52" opacity="0.5" filter="url(#b2)"/><circle cx="1164.5" cy="200.4" r="14.7" fill="#FFF6D9" opacity="0.3" filter="url(#b3)"/><circle cx="259.9" cy="474.9" r="12.6" fill="#FFF6D9" opacity="0.4" filter="url(#b3)"/><circle cx="1307.5" cy="636.7" r="19.8" fill="#FFF6D9" opacity="0.4" filter="url(#b3)"/><circle cx="1154.7" cy="473" r="36.2" fill="#FFF6D9" opacity="0.5" filter="url(#b3)"/><circle cx="342.2" cy="339.5" r="26.2" fill="#FFF6D9" opacity="0.3" filter="url(#b3)"/><circle cx="862.8" cy="373.3" r="32.6" fill="#FFF6D9" opacity="0.3" filter="url(#b3)"/><circle cx="1175.5" cy="482.8" r="17.7" fill="#FFF6D9" opacity="0.3" filter="url(#b3)"/><circle cx="266.9" cy="561.6" r="25.6" fill="#FFF6D9" opacity="0.5" filter="url(#b3)"/><circle cx="1585.2" cy="147.4" r="12.3" fill="#FFF6D9" opacity="0.2" filter="url(#b3)"/><circle cx="1218.6" cy="562.5" r="17.8" fill="#FFF6D9" opacity="0.5" filter="url(#b3)"/><circle cx="1453.1" cy="481.1" r="30.6" fill="#FFF6D9" opacity="0.3" filter="url(#b3)"/><circle cx="625.5" cy="217.3" r="34.2" fill="#FFF6D9" opacity="0.3" filter="url(#b3)"/><circle cx="1094.3" cy="395.1" r="36.7" fill="#FFF6D9" opacity="0.5" filter="url(#b3)"/><circle cx="137.9" cy="167.5" r="22" fill="#FFF6D9" opacity="0.3" filter="url(#b3)"/><circle cx="1280.4" cy="536.7" r="30.7" fill="#FFF6D9" opacity="0.4" filter="url(#b3)"/><circle cx="961.2" cy="384.6" r="25.8" fill="#FFF6D9" opacity="0.3" filter="url(#b3)"/><circle cx="921.9" cy="524.1" r="21.9" fill="#FFF6D9" opacity="0.3" filter="url(#b3)"/><circle cx="11.5" cy="16.6" r="16.2" fill="#FFF6D9" opacity="0.5" filter="url(#b3)"/><circle cx="1123.6" cy="606.1" r="36.2" fill="#FFF6D9" opacity="0.2" filter="url(#b3)"/><circle cx="1221.4" cy="635.7" r="27.4" fill="#FFF6D9" opacity="0.3" filter="url(#b3)"/><circle cx="1494.4" cy="30.3" r="25.5" fill="#FFF6D9" opacity="0.4" filter="url(#b3)"/><circle cx="1420.3" cy="230.1" r="37.8" fill="#FFF6D9" opacity="0.2" filter="url(#b3)"/><circle cx="1275.8" cy="244" r="34.5" fill="#FFF6D9" opacity="0.3" filter="url(#b3)"/><circle cx="669.3" cy="544.3" r="15.2" fill="#FFF6D9" opacity="0.3" filter="url(#b3)"/><circle cx="998" cy="235.1" r="13.2" fill="#FFF6D9" opacity="0.4" filter="url(#b3)"/><circle cx="420.8" cy="344.2" r="19.4" fill="#FFF6D9" opacity="0.5" filter="url(#b3)"/><circle cx="82.1" cy="122.9" r="24.5" fill="#FFF6D9" opacity="0.4" filter="url(#b3)"/><circle cx="62.1" cy="464.5" r="24.5" fill="#FFF6D9" opacity="0.2" filter="url(#b3)"/><circle cx="824.2" cy="53.7" r="28.9" fill="#FFF6D9" opacity="0.4" filter="url(#b3)"/><circle cx="907.8" cy="441.3" r="33.8" fill="#FFF6D9" opacity="0.3" filter="url(#b3)"/><rect width="1600" height="1200" fill="url(#rg4)"/><rect x="0" y="864" width="1600" height="336" fill="url(#lg5)" filter="url(#b6)"/><g filter="url(#b8)"><ellipse cx="836" cy="894" rx="369.6" ry="14" fill="#2f3d24" opacity="0.4" filter="url(#b3)"/><rect x="480" y="738" width="672" height="20" rx="4" fill="url(#lg7)"/><rect x="480" y="768" width="672" height="20" rx="4" fill="url(#lg7)"/><rect x="480" y="798" width="672" height="20" rx="4" fill="url(#lg7)"/><rect x="470" y="826" width="692" height="16" rx="4" fill="url(#lg7)"/><rect x="470" y="848" width="692" height="16" rx="4" fill="url(#lg7)"/><rect x="500" y="728" width="14" height="160" fill="#3a332b"/><rect x="1118" y="728" width="14" height="160" fill="#3a332b"/></g><g filter="url(#b9)"><path d="M18.9,1200 Q16.8,1149 12,1098" stroke="#4D6A3E" stroke-width="6" fill="none" stroke-linecap="round"/><path d="M575.6,1200 Q568.8,1164.6 552.9,1129.2" stroke="#5E7F4C" stroke-width="3.6" fill="none" stroke-linecap="round"/><path d="M487.9,1200 Q480.8,1157.3 464,1114.6" stroke="#4D6A3E" stroke-width="6.8" fill="none" stroke-linecap="round"/><path d="M168.9,1200 Q172.4,1142 180.5,1084" stroke="#3F5A34" stroke-width="5.2" fill="none" stroke-linecap="round"/><path d="M1586,1200 Q1581.9,1167.8 1572.5,1135.5" stroke="#4D6A3E" stroke-width="3.9" fill="none" stroke-linecap="round"/><path d="M1148,1200 Q1155.3,1158.5 1172.2,1117.1" stroke="#3F5A34" stroke-width="3.6" fill="none" stroke-linecap="round"/><path d="M1129.7,1200 Q1132.3,1123.6 1138.4,1047.3" stroke="#4D6A3E" stroke-width="3.2" fill="none" stroke-linecap="round"/><path d="M1468.7,1200 Q1460.5,1144 1441.5,1087.9" stroke="#4D6A3E" stroke-width="3.8" fill="none" stroke-linecap="round"/><path d="M1418.8,1200 Q1421.7,1169.8 1428.2,1139.5" stroke="#4D6A3E" stroke-width="3.4" fill="none" stroke-linecap="round"/><path d="M583.8,1200 Q582.5,1145.9 579.6,1091.9" stroke="#3F5A34" stroke-width="5.4" fill="none" stroke-linecap="round"/><path d="M1474.6,1200 Q1479.7,1142.9 1491.5,1085.7" stroke="#5E7F4C" stroke-width="3" fill="none" stroke-linecap="round"/><path d="M1061.8,1200 Q1068.6,1168.6 1084.3,1137.2" stroke="#4D6A3E" stroke-width="4.8" fill="none" stroke-linecap="round"/><path d="M742.7,1200 Q748.1,1138.1 760.8,1076.2" stroke="#4D6A3E" stroke-width="4.4" fill="none" stroke-linecap="round"/><path d="M877.6,1200 Q874.5,1156.2 867.1,1112.5" stroke="#5E7F4C" stroke-width="6.6" fill="none" stroke-linecap="round"/><path d="M1129.3,1200 Q1124.6,1118.8 1113.6,1037.6" stroke="#5E7F4C" stroke-width="3.7" fill="none" stroke-linecap="round"/><path d="M466,1200 Q473.8,1136.3 491.9,1072.5" stroke="#3F5A34" stroke-width="4.3" fill="none" stroke-linecap="round"/><path d="M899.3,1200 Q904.8,1117.5 917.6,1035" stroke="#5E7F4C" stroke-width="6.4" fill="none" stroke-linecap="round"/><path d="M255.2,1200 Q258.9,1117.5 267.5,1034.9" stroke="#5E7F4C" stroke-width="4.7" fill="none" stroke-linecap="round"/><path d="M1392.8,1200 Q1397.5,1129.2 1408.6,1058.4" stroke="#3F5A34" stroke-width="4.4" fill="none" stroke-linecap="round"/><path d="M275.5,1200 Q279.4,1118.5 288.5,1037.1" stroke="#4D6A3E" stroke-width="4.5" fill="none" stroke-linecap="round"/><path d="M939.7,1200 Q946,1156.1 960.8,1112.1" stroke="#5E7F4C" stroke-width="5.5" fill="none" stroke-linecap="round"/><path d="M1086,1200 Q1079.2,1123.7 1063.4,1047.5" stroke="#5E7F4C" stroke-width="5.4" fill="none" stroke-linecap="round"/><path d="M1574.5,1200 Q1572.5,1150.1 1568,1100.2" stroke="#5E7F4C" stroke-width="5.7" fill="none" stroke-linecap="round"/><path d="M1491.7,1200 Q1490.3,1160.9 1487.2,1121.7" stroke="#4D6A3E" stroke-width="3.6" fill="none" stroke-linecap="round"/><path d="M1320.9,1200 Q1313.7,1134.1 1297.1,1068.2" stroke="#4D6A3E" stroke-width="4.9" fill="none" stroke-linecap="round"/><path d="M927.4,1200 Q919.8,1120.5 901.8,1041.1" stroke="#3F5A34" stroke-width="4" fill="none" stroke-linecap="round"/><path d="M976.4,1200 Q984,1136.4 1001.6,1072.8" stroke="#3F5A34" stroke-width="3.9" fill="none" stroke-linecap="round"/><path d="M1294.7,1200 Q1292.3,1131.9 1286.6,1063.9" stroke="#3F5A34" stroke-width="3.1" fill="none" stroke-linecap="round"/><path d="M1467.2,1200 Q1475.6,1154.1 1495.3,1108.1" stroke="#4D6A3E" stroke-width="6.2" fill="none" stroke-linecap="round"/><path d="M139.7,1200 Q144.9,1137.5 157.1,1075" stroke="#3F5A34" stroke-width="6.5" fill="none" stroke-linecap="round"/><path d="M1552.3,1200 Q1559.1,1159.3 1574.8,1118.6" stroke="#4D6A3E" stroke-width="4.2" fill="none" stroke-linecap="round"/><path d="M982.5,1200 Q974.1,1141.4 954.5,1082.9" stroke="#3F5A34" stroke-width="4.9" fill="none" stroke-linecap="round"/><path d="M1080.3,1200 Q1079,1155.4 1076.1,1110.9" stroke="#5E7F4C" stroke-width="6.4" fill="none" stroke-linecap="round"/><path d="M258.9,1200 Q262.9,1166.9 272,1133.7" stroke="#5E7F4C" stroke-width="6.6" fill="none" stroke-linecap="round"/><path d="M1150.1,1200 Q1155.3,1134 1167.6,1067.9" stroke="#3F5A34" stroke-width="5.6" fill="none" stroke-linecap="round"/><path d="M1053.3,1200 Q1045.2,1164.1 1026.3,1128.2" stroke="#3F5A34" stroke-width="3.4" fill="none" stroke-linecap="round"/><path d="M11,1200 Q18.8,1165.8 36.9,1131.6" stroke="#4D6A3E" stroke-width="6.4" fill="none" stroke-linecap="round"/><path d="M76.5,1200 Q82.8,1154.4 97.6,1108.8" stroke="#5E7F4C" stroke-width="5.7" fill="none" stroke-linecap="round"/><path d="M955.2,1200 Q961.7,1130.5 976.8,1061" stroke="#4D6A3E" stroke-width="5.2" fill="none" stroke-linecap="round"/><path d="M814.4,1200 Q813.7,1138.8 812,1077.5" stroke="#4D6A3E" stroke-width="6.5" fill="none" stroke-linecap="round"/><path d="M892.9,1200 Q891.1,1129.1 886.9,1058.1" stroke="#4D6A3E" stroke-width="6" fill="none" stroke-linecap="round"/><path d="M787.6,1200 Q779.1,1133.2 759.2,1066.4" stroke="#5E7F4C" stroke-width="6" fill="none" stroke-linecap="round"/><path d="M638.6,1200 Q643.7,1166.5 655.7,1133" stroke="#5E7F4C" stroke-width="5.7" fill="none" stroke-linecap="round"/><path d="M646.7,1200 Q654.8,1123.9 673.8,1047.8" stroke="#4D6A3E" stroke-width="4.4" fill="none" stroke-linecap="round"/><path d="M699.4,1200 Q692.5,1116.6 676.4,1033.3" stroke="#3F5A34" stroke-width="4.7" fill="none" stroke-linecap="round"/><path d="M1402.6,1200 Q1399,1159 1390.4,1118" stroke="#5E7F4C" stroke-width="6.4" fill="none" stroke-linecap="round"/><path d="M471.3,1200 Q478.2,1125.2 494.2,1050.3" stroke="#4D6A3E" stroke-width="5" fill="none" stroke-linecap="round"/><path d="M1510.6,1200 Q1514.8,1143.6 1524.8,1087.3" stroke="#5E7F4C" stroke-width="5.3" fill="none" stroke-linecap="round"/><path d="M34.2,1200 Q38.6,1141.9 48.9,1083.7" stroke="#5E7F4C" stroke-width="5.6" fill="none" stroke-linecap="round"/><path d="M882.9,1200 Q881.1,1142.3 877,1084.7" stroke="#4D6A3E" stroke-width="3.1" fill="none" stroke-linecap="round"/><path d="M422,1200 Q426.8,1117.1 437.8,1034.2" stroke="#3F5A34" stroke-width="4.7" fill="none" stroke-linecap="round"/><path d="M727.7,1200 Q733.3,1121.1 746.4,1042.3" stroke="#4D6A3E" stroke-width="4" fill="none" stroke-linecap="round"/><path d="M389.5,1200 Q389.8,1130.5 390.3,1060.9" stroke="#4D6A3E" stroke-width="5.6" fill="none" stroke-linecap="round"/><path d="M730.6,1200 Q725.9,1116.3 714.8,1032.6" stroke="#5E7F4C" stroke-width="6.1" fill="none" stroke-linecap="round"/><path d="M726.1,1200 Q732,1141.1 745.6,1082.2" stroke="#5E7F4C" stroke-width="5.4" fill="none" stroke-linecap="round"/><path d="M114.9,1200 Q122.3,1155.1 139.5,1110.3" stroke="#4D6A3E" stroke-width="4.1" fill="none" stroke-linecap="round"/><path d="M1556.8,1200 Q1556.5,1133.8 1555.7,1067.5" stroke="#4D6A3E" stroke-width="3.4" fill="none" stroke-linecap="round"/><path d="M651.4,1200 Q647.1,1125.1 637,1050.2" stroke="#5E7F4C" stroke-width="3.3" fill="none" stroke-linecap="round"/><path d="M3.4,1200 Q10.6,1151.5 27.3,1103" stroke="#4D6A3E" stroke-width="3.1" fill="none" stroke-linecap="round"/><path d="M650.2,1200 Q658.8,1139.3 678.9,1078.6" stroke="#5E7F4C" stroke-width="6.5" fill="none" stroke-linecap="round"/><path d="M16.8,1200 Q13.2,1127.2 4.6,1054.3" stroke="#3F5A34" stroke-width="5.2" fill="none" stroke-linecap="round"/><path d="M1478.3,1200 Q1478.9,1131.8 1480.2,1063.5" stroke="#3F5A34" stroke-width="3.5" fill="none" stroke-linecap="round"/><path d="M147.1,1200 Q141.2,1163.4 127.5,1126.8" stroke="#5E7F4C" stroke-width="5.6" fill="none" stroke-linecap="round"/><path d="M1143.5,1200 Q1146.1,1150 1152.3,1100" stroke="#5E7F4C" stroke-width="5.9" fill="none" stroke-linecap="round"/><path d="M791.1,1200 Q793.2,1135.5 798.4,1071.1" stroke="#5E7F4C" stroke-width="6.9" fill="none" stroke-linecap="round"/><path d="M45.8,1200 Q45.4,1120.6 44.3,1041.1" stroke="#4D6A3E" stroke-width="5.3" fill="none" stroke-linecap="round"/><path d="M567.5,1200 Q566.6,1126.2 564.5,1052.5" stroke="#3F5A34" stroke-width="3.4" fill="none" stroke-linecap="round"/><path d="M18.6,1200 Q23,1140.8 33.1,1081.6" stroke="#3F5A34" stroke-width="4.6" fill="none" stroke-linecap="round"/><path d="M1288,1200 Q1285.4,1139.3 1279.5,1078.6" stroke="#5E7F4C" stroke-width="5.8" fill="none" stroke-linecap="round"/><path d="M1292.6,1200 Q1298.9,1119.9 1313.4,1039.7" stroke="#5E7F4C" stroke-width="6.9" fill="none" stroke-linecap="round"/><path d="M964.1,1200 Q966.5,1168.8 972.1,1137.6" stroke="#5E7F4C" stroke-width="4.4" fill="none" stroke-linecap="round"/><path d="M608.3,1200 Q612.3,1151.4 621.6,1102.8" stroke="#4D6A3E" stroke-width="6" fill="none" stroke-linecap="round"/><path d="M1595.4,1200 Q1595.3,1124.1 1595.3,1048.2" stroke="#5E7F4C" stroke-width="3.2" fill="none" stroke-linecap="round"/><path d="M795.7,1200 Q796.3,1168.7 797.6,1137.4" stroke="#4D6A3E" stroke-width="4" fill="none" stroke-linecap="round"/><path d="M560,1200 Q557.9,1134.2 553.2,1068.5" stroke="#3F5A34" stroke-width="4" fill="none" stroke-linecap="round"/><path d="M378,1200 Q378.4,1160.6 379.3,1121.2" stroke="#3F5A34" stroke-width="6.4" fill="none" stroke-linecap="round"/><path d="M489.4,1200 Q488.6,1137.2 486.9,1074.4" stroke="#4D6A3E" stroke-width="6.7" fill="none" stroke-linecap="round"/><path d="M998.9,1200 Q1001.2,1147.4 1006.6,1094.7" stroke="#5E7F4C" stroke-width="3.5" fill="none" stroke-linecap="round"/><path d="M552.9,1200 Q545,1115.4 526.4,1030.7" stroke="#4D6A3E" stroke-width="4.1" fill="none" stroke-linecap="round"/><path d="M1141.7,1200 Q1133.1,1166.9 1113.2,1133.8" stroke="#3F5A34" stroke-width="6.1" fill="none" stroke-linecap="round"/></g>
<rect width="1600" height="1200" fill="url(#rg11)"/>
<rect width="1600" height="1200" filter="url(#grain10)" style="mix-blend-mode:multiply"/>
</svg>
