<svg xmlns="http://www.w3.org/2000/svg" width="1920" height="1080" viewBox="0 0 1920 1080">
<!-- Imagen PROVISIONAL generada por scripts/generar-provisionales.mjs. Reemplazar por una foto real. -->
<defs>
<filter id="n1" x="0" y="0" width="100%" height="100%" color-interpolation-filters="sRGB">
<feTurbulence type="fractalNoise" baseFrequency="0.0035 0.09" numOctaves="3" seed="21" stitchTiles="noStitch"/>
<feColorMatrix type="matrix" values="0 0 0 0 0.353  0 0 0 0 0.290  0 0 0 0 0.220  1.4 0 0 0 -0.45"/>
<feComponentTransfer><feFuncA type="linear" slope="0.35200000000000004" intercept="0"/></feComponentTransfer></filter>
<filter id="n2" x="0" y="0" width="100%" height="100%" color-interpolation-filters="sRGB">
<feTurbulence type="fractalNoise" baseFrequency="0.02 0.6" numOctaves="1" seed="23" stitchTiles="noStitch"/>
<feColorMatrix type="matrix" values="0 0 0 0 0.475  0 0 0 0 0.388  0 0 0 0 0.290  1.4 0 0 0 -0.45"/>
<feComponentTransfer><feFuncA type="linear" slope="0.15400000000000003" intercept="0"/></feComponentTransfer></filter>
<linearGradient id="lg3" x1="0" y1="0" x2="1" y2="1"><stop offset="0" stop-color="#d3b594" stop-opacity="1"/><stop offset="0.5" stop-color="#C9A57C" stop-opacity="1"/><stop offset="1" stop-color="#b1916d" stop-opacity="1"/></linearGradient>
<radialGradient id="rg4" cx="0.4" cy="0.35" r="0.5"><stop offset="0" stop-color="#FFF9EC" stop-opacity="1"/><stop offset="0.8" stop-color="#E8DCC4" stop-opacity="1"/><stop offset="1" stop-color="#C9B795" stop-opacity="1"/></radialGradient>
<radialGradient id="rg5" cx="0.4" cy="0.35" r="0.5"><stop offset="0" stop-color="#5E7A6B" stop-opacity="1"/><stop offset="0.8" stop-color="#2D4A42" stop-opacity="1"/><stop offset="1" stop-color="#1F3530" stop-opacity="1"/></radialGradient>
<filter id="s6" x="-40%" y="-40%" width="190%" height="190%" color-interpolation-filters="sRGB">
<feGaussianBlur in="SourceAlpha" stdDeviation="4.5"/><feOffset dx="2.75" dy="4" result="o1"/>
<feFlood flood-color="#3E3024" flood-opacity="0.26"/><feComposite in2="o1" operator="in" result="s1"/>
<feGaussianBlur in="SourceAlpha" stdDeviation="1"/><feOffset dx="0.6" dy="0.8999999999999999" result="o2"/>
<feFlood flood-color="#3E3024" flood-opacity="0.34"/><feComposite in2="o2" operator="in" result="s2"/>
<feMerge><feMergeNode in="s1"/><feMergeNode in="s2"/><feMergeNode in="SourceGraphic"/></feMerge></filter>
<filter id="s7" x="-40%" y="-40%" width="190%" height="190%" color-interpolation-filters="sRGB">
<feGaussianBlur in="SourceAlpha" stdDeviation="7.2"/><feOffset dx="4.4" dy="6.4" result="o1"/>
<feFlood flood-color="#3E3024" flood-opacity="0.26"/><feComposite in2="o1" operator="in" result="s1"/>
<feGaussianBlur in="SourceAlpha" stdDeviation="1.12"/><feOffset dx="0.96" dy="1.44" result="o2"/>
<feFlood flood-color="#3E3024" flood-opacity="0.34"/><feComposite in2="o2" operator="in" result="s2"/>
<feMerge><feMergeNode in="s1"/><feMergeNode in="s2"/><feMergeNode in="SourceGraphic"/></feMerge></filter>
<radialGradient id="rg8" cx="0.38" cy="0.34" r="0.72"><stop offset="0" stop-color="#d6a98d" stop-opacity="1"/><stop offset="0.7" stop-color="#C4845C" stop-opacity="1"/><stop offset="1" stop-color="#895c40" stop-opacity="1"/></radialGradient>
<clipPath id="cy9"><circle cx="1100" cy="360" r="110"/></clipPath>
<filter id="s10" x="-40%" y="-40%" width="190%" height="190%" color-interpolation-filters="sRGB">
<feGaussianBlur in="SourceAlpha" stdDeviation="14.4"/><feOffset dx="8.8" dy="12.8" result="o1"/>
<feFlood flood-color="#3E3024" flood-opacity="0.26"/><feComposite in2="o1" operator="in" result="s1"/>
<feGaussianBlur in="SourceAlpha" stdDeviation="2.24"/><feOffset dx="1.92" dy="2.88" result="o2"/>
<feFlood flood-color="#3E3024" flood-opacity="0.34"/><feComposite in2="o2" operator="in" result="s2"/>
<feMerge><feMergeNode in="s1"/><feMergeNode in="s2"/><feMergeNode in="SourceGraphic"/></feMerge></filter>
<filter id="s11" x="-40%" y="-40%" width="190%" height="190%" color-interpolation-filters="sRGB">
<feGaussianBlur in="SourceAlpha" stdDeviation="2.7"/><feOffset dx="1.6500000000000001" dy="2.4000000000000004" result="o1"/>
<feFlood flood-color="#3E3024" flood-opacity="0.26"/><feComposite in2="o1" operator="in" result="s1"/>
<feGaussianBlur in="SourceAlpha" stdDeviation="1"/><feOffset dx="0.36" dy="0.54" result="o2"/>
<feFlood flood-color="#3E3024" flood-opacity="0.34"/><feComposite in2="o2" operator="in" result="s2"/>
<feMerge><feMergeNode in="s1"/><feMergeNode in="s2"/><feMergeNode in="SourceGraphic"/></feMerge></filter>
<filter id="s12" x="-40%" y="-40%" width="190%" height="190%" color-interpolation-filters="sRGB">
<feGaussianBlur in="SourceAlpha" stdDeviation="5.4"/><feOffset dx="3.3000000000000003" dy="4.800000000000001" result="o1"/>
<feFlood flood-color="#3E3024" flood-opacity="0.26"/><feComposite in2="o1" operator="in" result="s1"/>
<feGaussianBlur in="SourceAlpha" stdDeviation="1"/><feOffset dx="0.72" dy="1.08" result="o2"/>
<feFlood flood-color="#3E3024" flood-opacity="0.34"/><feComposite in2="o2" operator="in" result="s2"/>
<feMerge><feMergeNode in="s1"/><feMergeNode in="s2"/><feMergeNode in="SourceGraphic"/></feMerge></filter>
<linearGradient id="lg13" x1="0" y1="0" x2="1" y2="0"><stop offset="0" stop-color="#F3ECDD" stop-opacity="1"/><stop offset="0.46" stop-color="#FBF7EE" stop-opacity="1"/><stop offset="0.5" stop-color="#D9CDB6" stop-opacity="1"/><stop offset="0.54" stop-color="#FBF7EE" stop-opacity="1"/><stop offset="1" stop-color="#F0E8D8" stop-opacity="1"/></linearGradient>
<radialGradient id="rg14" cx="0.42" cy="0.38" r="0.72"><stop offset="0" stop-color="#fdfcf9" stop-opacity="1"/><stop offset="0.72" stop-color="#FCFAF5" stop-opacity="1"/><stop offset="1" stop-color="#eae9e4" stop-opacity="1"/></radialGradient>
<radialGradient id="rg15" cx="0.58" cy="0.62" r="0.62"><stop offset="0" stop-color="#FCFAF5" stop-opacity="1"/><stop offset="0.8" stop-color="#f3f1ec" stop-opacity="1"/><stop offset="1" stop-color="#e3e1dd" stop-opacity="1"/></radialGradient>
<radialGradient id="rg16" cx="0.4" cy="0.35" r="0.7"><stop offset="0" stop-color="#fff" stop-opacity="1"/><stop offset="0.8" stop-color="#FCFAF5" stop-opacity="1"/><stop offset="1" stop-color="#dedcd8" stop-opacity="1"/></radialGradient>
<radialGradient id="rg17" cx="0.46" cy="0.44" r="0.6"><stop offset="0" stop-color="#B8875A" stop-opacity="1"/><stop offset="0.55" stop-color="#8a613e" stop-opacity="1"/><stop offset="0.8" stop-color="#5C3A22" stop-opacity="1"/><stop offset="1" stop-color="#402918" stop-opacity="1"/></radialGradient>
<filter id="s18" x="-40%" y="-40%" width="190%" height="190%" color-interpolation-filters="sRGB">
<feGaussianBlur in="SourceAlpha" stdDeviation="12.6"/><feOffset dx="7.700000000000001" dy="11.200000000000001" result="o1"/>
<feFlood flood-color="#3E3024" flood-opacity="0.26"/><feComposite in2="o1" operator="in" result="s1"/>
<feGaussianBlur in="SourceAlpha" stdDeviation="1.9600000000000002"/><feOffset dx="1.68" dy="2.52" result="o2"/>
<feFlood flood-color="#3E3024" flood-opacity="0.34"/><feComposite in2="o2" operator="in" result="s2"/>
<feMerge><feMergeNode in="s1"/><feMergeNode in="s2"/><feMergeNode in="SourceGraphic"/></feMerge></filter>
<radialGradient id="rg19" cx="0.4" cy="0.35" r="0.5"><stop offset="0" stop-color="#F2D48A" stop-opacity="1"/><stop offset="0.7" stop-color="#D2A646" stop-opacity="1"/><stop offset="1" stop-color="#9C7424" stop-opacity="1"/></radialGradient>
<pattern id="pt20" width="12" height="12" patternUnits="userSpaceOnUse" patternTransform="rotate(45)"><rect width="12" height="12" fill="#2D4A42"/><path d="M0 6h12M6 0v12" stroke="#C9B98E" stroke-width="1" opacity="0.5"/></pattern>
<filter id="grain21" x="0" y="0" width="100%" height="100%" color-interpolation-filters="sRGB">
<feTurbulence type="fractalNoise" baseFrequency="0.92" numOctaves="2" seed="7" stitchTiles="noStitch"/>
<feColorMatrix type="saturate" values="0"/>
<feComponentTransfer><feFuncA type="table" tableValues="0 0.09"/></feComponentTransfer></filter>
<radialGradient id="rg22" cx="0.5" cy="0.48" r="0.78"><stop offset="0" stop-color="#000" stop-opacity="0"/><stop offset="0.62" stop-color="#000" stop-opacity="0"/><stop offset="1" stop-color="#2b1d10" stop-opacity="0.16"/></radialGradient>
</defs>
<rect x="0" y="0" width="1920" height="1080" fill="url(#lg3)"/>
<rect x="0" y="0" width="1920" height="1080" filter="url(#n1)"/>
<rect x="0" y="0" width="1920" height="1080" filter="url(#n2)"/><rect x="0" y="179" width="1920" height="2" fill="#8d7457" opacity="0.35"/><rect x="0" y="359" width="1920" height="2" fill="#8d7457" opacity="0.35"/><rect x="0" y="539" width="1920" height="2" fill="#8d7457" opacity="0.35"/><rect x="0" y="719" width="1920" height="2" fill="#8d7457" opacity="0.35"/><rect x="0" y="899" width="1920" height="2" fill="#8d7457" opacity="0.35"/>
<g transform="translate(560 560) rotate(-10)"><rect x="-253" y="-253" width="506" height="506" rx="6" fill="#8E6A48" filter="url(#s7)"/>
<rect x="-230" y="-230" width="460" height="460" fill="#EFE3CB"/><g fill="#B98F66"><rect x="-230" y="-172.5" width="57.5" height="57.5"/><rect x="-230" y="-57.5" width="57.5" height="57.5"/><rect x="-230" y="57.5" width="57.5" height="57.5"/><rect x="-230" y="172.5" width="57.5" height="57.5"/><rect x="-172.5" y="-230" width="57.5" height="57.5"/><rect x="-172.5" y="-115" width="57.5" height="57.5"/><rect x="-172.5" y="0" width="57.5" height="57.5"/><rect x="-172.5" y="115" width="57.5" height="57.5"/><rect x="-115" y="-172.5" width="57.5" height="57.5"/><rect x="-115" y="-57.5" width="57.5" height="57.5"/><rect x="-115" y="57.5" width="57.5" height="57.5"/><rect x="-115" y="172.5" width="57.5" height="57.5"/><rect x="-57.5" y="-230" width="57.5" height="57.5"/><rect x="-57.5" y="-115" width="57.5" height="57.5"/><rect x="-57.5" y="0" width="57.5" height="57.5"/><rect x="-57.5" y="115" width="57.5" height="57.5"/><rect x="0" y="-172.5" width="57.5" height="57.5"/><rect x="0" y="-57.5" width="57.5" height="57.5"/><rect x="0" y="57.5" width="57.5" height="57.5"/><rect x="0" y="172.5" width="57.5" height="57.5"/><rect x="57.5" y="-230" width="57.5" height="57.5"/><rect x="57.5" y="-115" width="57.5" height="57.5"/><rect x="57.5" y="0" width="57.5" height="57.5"/><rect x="57.5" y="115" width="57.5" height="57.5"/><rect x="115" y="-172.5" width="57.5" height="57.5"/><rect x="115" y="-57.5" width="57.5" height="57.5"/><rect x="115" y="57.5" width="57.5" height="57.5"/><rect x="115" y="172.5" width="57.5" height="57.5"/><rect x="172.5" y="-230" width="57.5" height="57.5"/><rect x="172.5" y="-115" width="57.5" height="57.5"/><rect x="172.5" y="0" width="57.5" height="57.5"/><rect x="172.5" y="115" width="57.5" height="57.5"/></g><circle cx="-143.7" cy="-201.2" r="21.9" fill="url(#rg4)" filter="url(#s6)"/><circle cx="-143.7" cy="-201.2" r="15" fill="none" stroke="#B5A27D" stroke-width="1.5" opacity="0.7"/><circle cx="-28.7" cy="-201.2" r="21.9" fill="url(#rg4)" filter="url(#s6)"/><circle cx="-28.7" cy="-201.2" r="15" fill="none" stroke="#B5A27D" stroke-width="1.5" opacity="0.7"/><circle cx="86.3" cy="-201.2" r="21.9" fill="url(#rg4)" filter="url(#s6)"/><circle cx="86.3" cy="-201.2" r="15" fill="none" stroke="#B5A27D" stroke-width="1.5" opacity="0.7"/><circle cx="-201.2" cy="-143.7" r="21.9" fill="url(#rg4)" filter="url(#s6)"/><circle cx="-201.2" cy="-143.7" r="15" fill="none" stroke="#B5A27D" stroke-width="1.5" opacity="0.7"/><circle cx="-86.2" cy="-143.7" r="21.9" fill="url(#rg4)" filter="url(#s6)"/><circle cx="-86.2" cy="-143.7" r="15" fill="none" stroke="#B5A27D" stroke-width="1.5" opacity="0.7"/><circle cx="143.8" cy="-143.7" r="21.9" fill="url(#rg4)" filter="url(#s6)"/><circle cx="143.8" cy="-143.7" r="15" fill="none" stroke="#B5A27D" stroke-width="1.5" opacity="0.7"/><circle cx="-143.7" cy="-86.2" r="21.9" fill="url(#rg4)" filter="url(#s6)"/><circle cx="-143.7" cy="-86.2" r="15" fill="none" stroke="#B5A27D" stroke-width="1.5" opacity="0.7"/><circle cx="86.3" cy="-86.2" r="21.9" fill="url(#rg4)" filter="url(#s6)"/><circle cx="86.3" cy="-86.2" r="15" fill="none" stroke="#B5A27D" stroke-width="1.5" opacity="0.7"/><circle cx="28.8" cy="-28.7" r="21.9" fill="url(#rg4)" filter="url(#s6)"/><circle cx="28.8" cy="-28.7" r="15" fill="none" stroke="#B5A27D" stroke-width="1.5" opacity="0.7"/><circle cx="-86.2" cy="86.3" r="21.9" fill="url(#rg5)" filter="url(#s6)"/><circle cx="-86.2" cy="86.3" r="15" fill="none" stroke="#8FA89A" stroke-width="1.5" opacity="0.7"/><circle cx="28.8" cy="86.3" r="21.9" fill="url(#rg5)" filter="url(#s6)"/><circle cx="28.8" cy="86.3" r="15" fill="none" stroke="#8FA89A" stroke-width="1.5" opacity="0.7"/><circle cx="143.8" cy="86.3" r="21.9" fill="url(#rg5)" filter="url(#s6)"/><circle cx="143.8" cy="86.3" r="15" fill="none" stroke="#8FA89A" stroke-width="1.5" opacity="0.7"/><circle cx="-143.7" cy="143.8" r="21.9" fill="url(#rg5)" filter="url(#s6)"/><circle cx="-143.7" cy="143.8" r="15" fill="none" stroke="#8FA89A" stroke-width="1.5" opacity="0.7"/><circle cx="-28.7" cy="143.8" r="21.9" fill="url(#rg5)" filter="url(#s6)"/><circle cx="-28.7" cy="143.8" r="15" fill="none" stroke="#8FA89A" stroke-width="1.5" opacity="0.7"/><circle cx="201.3" cy="143.8" r="21.9" fill="url(#rg5)" filter="url(#s6)"/><circle cx="201.3" cy="143.8" r="15" fill="none" stroke="#8FA89A" stroke-width="1.5" opacity="0.7"/><circle cx="-201.2" cy="201.3" r="21.9" fill="url(#rg5)" filter="url(#s6)"/><circle cx="-201.2" cy="201.3" r="15" fill="none" stroke="#8FA89A" stroke-width="1.5" opacity="0.7"/><circle cx="28.8" cy="201.3" r="21.9" fill="url(#rg5)" filter="url(#s6)"/><circle cx="28.8" cy="201.3" r="15" fill="none" stroke="#8FA89A" stroke-width="1.5" opacity="0.7"/><circle cx="-28.7" cy="28.8" r="21.9" fill="url(#rg5)" filter="url(#s6)"/><circle cx="-28.7" cy="28.8" r="15" fill="none" stroke="#8FA89A" stroke-width="1.5" opacity="0.7"/></g>
<circle cx="1100" cy="360" r="110" fill="url(#rg8)" filter="url(#s10)"/>
<g clip-path="url(#cy9)" fill="none" stroke="#936345" stroke-width="3.9" opacity="0.45"><ellipse cx="1100" cy="360" rx="79" ry="36.7" transform="rotate(80.6 1100 360)"/><ellipse cx="1100" cy="360" rx="91" ry="33.2" transform="rotate(37.4 1100 360)"/><ellipse cx="1100" cy="360" rx="64.1" ry="28.1" transform="rotate(66.8 1100 360)"/><ellipse cx="1100" cy="360" rx="103.2" ry="48.5" transform="rotate(144.3 1100 360)"/><ellipse cx="1100" cy="360" rx="78.7" ry="30.1" transform="rotate(131.8 1100 360)"/><ellipse cx="1100" cy="360" rx="68.6" ry="35" transform="rotate(171.6 1100 360)"/><ellipse cx="1100" cy="360" rx="98.3" ry="43.7" transform="rotate(137.1 1100 360)"/><ellipse cx="1100" cy="360" rx="79" ry="32.3" transform="rotate(123 1100 360)"/><ellipse cx="1100" cy="360" rx="61.2" ry="33.5" transform="rotate(25.4 1100 360)"/><ellipse cx="1100" cy="360" rx="63.6" ry="21.9" transform="rotate(123.3 1100 360)"/><ellipse cx="1100" cy="360" rx="101.3" ry="52.7" transform="rotate(70.4 1100 360)"/><ellipse cx="1100" cy="360" rx="91.6" ry="50.3" transform="rotate(158.4 1100 360)"/><ellipse cx="1100" cy="360" rx="97.1" ry="45.1" transform="rotate(97.8 1100 360)"/><ellipse cx="1100" cy="360" rx="107.7" ry="47" transform="rotate(103.1 1100 360)"/><ellipse cx="1100" cy="360" rx="73.9" ry="21.7" transform="rotate(21.5 1100 360)"/><ellipse cx="1100" cy="360" rx="64.9" ry="17.6" transform="rotate(25.3 1100 360)"/></g>
<g clip-path="url(#cy9)" fill="none" stroke="#d9af95" stroke-width="2.2" opacity="0.4" transform="translate(-2 -2)"><ellipse cx="1100" cy="360" rx="79" ry="36.7" transform="rotate(80.6 1100 360)"/><ellipse cx="1100" cy="360" rx="91" ry="33.2" transform="rotate(37.4 1100 360)"/><ellipse cx="1100" cy="360" rx="64.1" ry="28.1" transform="rotate(66.8 1100 360)"/><ellipse cx="1100" cy="360" rx="103.2" ry="48.5" transform="rotate(144.3 1100 360)"/><ellipse cx="1100" cy="360" rx="78.7" ry="30.1" transform="rotate(131.8 1100 360)"/><ellipse cx="1100" cy="360" rx="68.6" ry="35" transform="rotate(171.6 1100 360)"/><ellipse cx="1100" cy="360" rx="98.3" ry="43.7" transform="rotate(137.1 1100 360)"/><ellipse cx="1100" cy="360" rx="79" ry="32.3" transform="rotate(123 1100 360)"/><ellipse cx="1100" cy="360" rx="61.2" ry="33.5" transform="rotate(25.4 1100 360)"/><ellipse cx="1100" cy="360" rx="63.6" ry="21.9" transform="rotate(123.3 1100 360)"/><ellipse cx="1100" cy="360" rx="101.3" ry="52.7" transform="rotate(70.4 1100 360)"/><ellipse cx="1100" cy="360" rx="91.6" ry="50.3" transform="rotate(158.4 1100 360)"/><ellipse cx="1100" cy="360" rx="97.1" ry="45.1" transform="rotate(97.8 1100 360)"/><ellipse cx="1100" cy="360" rx="107.7" ry="47" transform="rotate(103.1 1100 360)"/><ellipse cx="1100" cy="360" rx="73.9" ry="21.7" transform="rotate(21.5 1100 360)"/><ellipse cx="1100" cy="360" rx="64.9" ry="17.6" transform="rotate(25.3 1100 360)"/></g>
<path d="M1177,437 C1254,481 1166,558 1276,591" fill="none" stroke="#C4845C" stroke-width="5.5" stroke-linecap="round" filter="url(#s11)"/>
<g transform="translate(1180 560) rotate(-24)" filter="url(#s12)"><rect x="0" y="-4.2" width="380" height="8.4" rx="4.2" fill="#D4B791"/><circle cx="380" cy="0" r="15" fill="#948066"/></g>
<g transform="translate(1450 700) rotate(14)">
<rect x="-218" y="-148.8" width="436" height="297.6" rx="4" fill="#2D4A42" filter="url(#s12)"/>
<path d="M-210,-136.8 Q-105,-146.8 0,-138.8 Q105,-146.8 210,-136.8 L210,142.8 Q105,134.8 0,140.8 Q-105,134.8 -210,142.8Z" fill="url(#lg13)"/><rect x="-180.6" y="-102.8" width="137.2" height="5.1" rx="1" fill="#8F8573" opacity="0.55"/><rect x="-180.6" y="-85.1" width="146.2" height="5.1" rx="1" fill="#8F8573" opacity="0.55"/><rect x="-180.6" y="-67.4" width="136.3" height="5.1" rx="1" fill="#8F8573" opacity="0.55"/><rect x="-180.6" y="-49.7" width="136.4" height="5.1" rx="1" fill="#8F8573" opacity="0.55"/><rect x="-180.6" y="-32" width="137.5" height="5.1" rx="1" fill="#8F8573" opacity="0.55"/><rect x="-180.6" y="-14.3" width="130.3" height="5.1" rx="1" fill="#8F8573" opacity="0.55"/><rect x="-180.6" y="3.4" width="150.6" height="5.1" rx="1" fill="#8F8573" opacity="0.55"/><rect x="-180.6" y="21.1" width="139.9" height="5.1" rx="1" fill="#8F8573" opacity="0.55"/><rect x="-180.6" y="38.8" width="129.9" height="5.1" rx="1" fill="#8F8573" opacity="0.55"/><rect x="-180.6" y="56.5" width="143" height="5.1" rx="1" fill="#8F8573" opacity="0.55"/><rect x="-180.6" y="74.3" width="144.7" height="5.1" rx="1" fill="#8F8573" opacity="0.55"/><rect x="-180.6" y="92" width="84" height="5.1" rx="1" fill="#8F8573" opacity="0.55"/><rect x="37.8" y="-102.8" width="148.7" height="5.1" rx="1" fill="#8F8573" opacity="0.55"/><rect x="37.8" y="-85.1" width="139.6" height="5.1" rx="1" fill="#8F8573" opacity="0.55"/><rect x="37.8" y="-67.4" width="131.6" height="5.1" rx="1" fill="#8F8573" opacity="0.55"/><rect x="37.8" y="-49.7" width="128.9" height="5.1" rx="1" fill="#8F8573" opacity="0.55"/><rect x="37.8" y="-32" width="137.8" height="5.1" rx="1" fill="#8F8573" opacity="0.55"/><rect x="37.8" y="-14.3" width="138.7" height="5.1" rx="1" fill="#8F8573" opacity="0.55"/><rect x="37.8" y="3.4" width="142.7" height="5.1" rx="1" fill="#8F8573" opacity="0.55"/><rect x="37.8" y="21.1" width="131.7" height="5.1" rx="1" fill="#8F8573" opacity="0.55"/><rect x="37.8" y="38.8" width="132.7" height="5.1" rx="1" fill="#8F8573" opacity="0.55"/><rect x="37.8" y="56.5" width="135.9" height="5.1" rx="1" fill="#8F8573" opacity="0.55"/><rect x="37.8" y="74.3" width="132.3" height="5.1" rx="1" fill="#8F8573" opacity="0.55"/><rect x="37.8" y="92" width="84" height="5.1" rx="1" fill="#8F8573" opacity="0.55"/></g>
<circle cx="1000" cy="820" r="124" fill="url(#rg14)" filter="url(#s12)"/>
<circle cx="1000" cy="820" r="86.8" fill="url(#rg15)"/>
<path d="M888.4,832.4 A111.6,111.6 0 0 1 987.6,708.4" fill="none" stroke="#fff" stroke-width="4.3" stroke-linecap="round" opacity="0.55"/><g filter="url(#s18)"><rect x="-17.6" y="-10.4" width="49.6" height="20.8" rx="10.4" fill="#f4f3ee" transform="translate(1078.9 848.7) rotate(20)"/>
<circle cx="1000" cy="820" r="80" fill="url(#rg16)"/></g>
<circle cx="1000" cy="820" r="67.2" fill="url(#rg17)"/>
<circle cx="1000" cy="820" r="67.2" fill="none" stroke="#d6d5d0" stroke-width="2.4" opacity="0.5"/>
<ellipse cx="976" cy="794.4" rx="17.6" ry="6.4" fill="#fff" opacity="0.35" transform="rotate(-35 976 794.4)"/>
<g transform="translate(180 300) rotate(-14)"><rect x="-70" y="-108.5" width="140" height="217" rx="11.2" fill="#FBF8F1" stroke="#E0D6C4" stroke-width="1" filter="url(#s11)"/><circle cx="-28" cy="-56.4" r="18.2" fill="url(#rg19)" stroke="#8E6A1F" stroke-width="1.2"/><circle cx="-28" cy="-56.4" r="8.4" fill="none" stroke="#8E6A1F" stroke-width="1"/><circle cx="28" cy="-56.4" r="18.2" fill="url(#rg19)" stroke="#8E6A1F" stroke-width="1.2"/><circle cx="28" cy="-56.4" r="8.4" fill="none" stroke="#8E6A1F" stroke-width="1"/><circle cx="0" cy="0" r="18.2" fill="url(#rg19)" stroke="#8E6A1F" stroke-width="1.2"/><circle cx="0" cy="0" r="8.4" fill="none" stroke="#8E6A1F" stroke-width="1"/><circle cx="-28" cy="56.4" r="18.2" fill="url(#rg19)" stroke="#8E6A1F" stroke-width="1.2"/><circle cx="-28" cy="56.4" r="8.4" fill="none" stroke="#8E6A1F" stroke-width="1"/><circle cx="28" cy="56.4" r="18.2" fill="url(#rg19)" stroke="#8E6A1F" stroke-width="1.2"/><circle cx="28" cy="56.4" r="8.4" fill="none" stroke="#8E6A1F" stroke-width="1"/><rect x="-58.8" y="-97.6" width="117.6" height="195.3" rx="4" fill="none" stroke="#C9A15A" stroke-width="1.2" opacity="0.7"/><text x="-47.6" y="-71.6" font-family="Georgia, serif" font-size="22.4" fill="#8E6A1F">5</text></g>
<g transform="translate(260 330) rotate(6)"><rect x="-70" y="-108.5" width="140" height="217" rx="11.2" fill="#FBF8F1" stroke="#E0D6C4" stroke-width="1" filter="url(#s11)"/><rect x="-56" y="-93.3" width="112" height="186.6" rx="5" fill="url(#pt20)"/></g>
<rect width="1920" height="1080" fill="url(#rg22)"/>
<rect width="1920" height="1080" filter="url(#grain21)" style="mix-blend-mode:multiply"/>
</svg>
